<svg width="30" height="42" viewBox="0 0 30 42" fill="none" xmlns="http://www.w3.org/2000/svg">
<path fill-rule="evenodd" clip-rule="evenodd" d="M10 40.5L3 38L1 33V28.5V24L3 19L5.5 16L8 14.5L14 8.5L15 6V4.5L13 2.5L15 1L21 3.5L25 5L26.5 9L29 12V16.5L25 20.5H24.5H23L22 25L20 30L18.5 33L16 35.5L14 37.5L10 40.5ZM20.5 18.5V13L25 14.5L26 12L27 14V15.5L24 18.5H20.5Z" fill="white"/>
<path d="M17 38.5L19.5 34L22 29L24 24L24.5 20.5M24.5 20.5H25L29 16.5V12L26.5 9L25 5L21 3.5L15 1L13 2.5L15 4.5V6L14 8.5L8 14.5L5.5 16L3 19L1 24V28.5V33L3 38L10 40.5L14 37.5L16 35.5L18.5 33L20 30L22 25L23 20.5H24.5ZM24 18.5H20.5V13L25 14.5M24 18.5L25 14.5M24 18.5L27 15.5V14L26 12L25 14.5" stroke="white"/>
</svg>
