<svg width="37" height="42" viewBox="0 0 37 42" fill="none" xmlns="http://www.w3.org/2000/svg">
<path d="M27.5 2L16.5 15.5L15 16.5L13 17L1 35V38L4.5 41L7 41.5H9L12 38L21.5 24.5V18.5L24.5 14L29.5 5V4V3L28 2H27.5Z" fill="white"/>
<path d="M28 2L29.5 3V4L31.5 5V12L32.5 19L35 21L36 22V19L35 16L34.5 10.5L34 5.5L33 3L29.5 1.5L27.5 2H28Z" fill="white"/>
<path d="M27.5 2L16.5 15.5L15 16.5L13 17L1 35V38L4.5 41L7 41.5H9L12 38L21.5 24.5V18.5L24.5 14L29.5 5V4M27.5 2H28L29.5 3V4M27.5 2L29.5 1.5L33 3L34 5.5L34.5 10.5L35 16L36 19V22L35 21L32.5 19L31.5 12V5L29.5 4" stroke="white"/>
</svg>
