<svg width="128" height="35" viewBox="0 0 128 35" fill="none" xmlns="http://www.w3.org/2000/svg">
<path d="M0.566 34.2V30.762H1.952C2.78 30.762 3.512 30.654 4.148 30.438C4.796 30.234 5.348 29.916 5.804 29.484C6.272 29.064 6.626 28.524 6.866 27.864C7.106 27.216 7.226 26.454 7.226 25.578V12.276H1.034V9H11.582V26.334C11.582 27.654 11.348 28.806 10.88 29.79C10.424 30.774 9.782 31.59 8.954 32.238C8.138 32.898 7.16 33.39 6.02 33.714C4.892 34.038 3.65 34.2 2.294 34.2H0.566ZM7.118 1.386H11.6V5.904H7.118V1.386ZM26.396 27.414C25.46 27.414 24.608 27.27 23.84 26.982C23.084 26.682 22.43 26.226 21.878 25.614C21.338 25.002 20.918 24.216 20.618 23.256C20.33 22.284 20.186 21.126 20.186 19.782V9H24.542V19.098C24.542 20.262 24.656 21.204 24.884 21.924C25.124 22.632 25.49 23.148 25.982 23.472C26.486 23.796 27.122 23.958 27.89 23.958C28.442 23.958 28.958 23.85 29.438 23.634C29.93 23.418 30.368 23.124 30.752 22.752C31.136 22.368 31.442 21.93 31.67 21.438C31.898 20.946 32.036 20.424 32.084 19.872L33.146 20.304C33.146 21.168 33.002 22.02 32.714 22.86C32.438 23.7 32.012 24.468 31.436 25.164C30.872 25.848 30.17 26.394 29.33 26.802C28.49 27.21 27.512 27.414 26.396 27.414ZM32.876 27L31.994 22.95V9H36.35V24.678L35.594 23.724H38.438V27H32.876ZM52.0961 27.396C50.7521 27.396 49.5341 27.264 48.4421 27C47.3621 26.724 46.4201 26.346 45.6161 25.866C44.8241 25.386 44.2001 24.822 43.7441 24.174L47.1641 21.906C47.3681 22.23 47.6321 22.53 47.9561 22.806C48.2801 23.082 48.6581 23.322 49.0901 23.526C49.5221 23.718 50.0021 23.862 50.5301 23.958C51.0701 24.054 51.6401 24.102 52.2401 24.102C52.8041 24.102 53.3381 24.06 53.8421 23.976C54.3461 23.88 54.7901 23.742 55.1741 23.562C55.5701 23.37 55.8761 23.124 56.0921 22.824C56.3201 22.524 56.4341 22.158 56.4341 21.726C56.4341 21.222 56.2001 20.814 55.7321 20.502C55.2641 20.178 54.6161 19.914 53.7881 19.71C52.9721 19.506 52.0241 19.326 50.9441 19.17C50.1281 19.05 49.3181 18.87 48.5141 18.63C47.7221 18.39 47.0021 18.066 46.3541 17.658C45.7181 17.238 45.2081 16.71 44.8241 16.074C44.4401 15.426 44.2481 14.658 44.2481 13.77C44.2481 13.026 44.3981 12.372 44.6981 11.808C45.0101 11.244 45.4301 10.758 45.9581 10.35C46.4981 9.942 47.1161 9.606 47.8121 9.342C48.5081 9.078 49.2401 8.886 50.0081 8.766C50.7881 8.634 51.5621 8.568 52.3301 8.568C53.6381 8.568 54.8021 8.73 55.8221 9.054C56.8421 9.366 57.7001 9.768 58.3961 10.26C59.0921 10.74 59.6021 11.226 59.9261 11.718L56.5961 13.878C56.4401 13.578 56.2121 13.302 55.9121 13.05C55.6241 12.798 55.2761 12.582 54.8681 12.402C54.4721 12.21 54.0401 12.066 53.5721 11.97C53.1041 11.862 52.6121 11.808 52.0961 11.808C51.6761 11.808 51.2381 11.844 50.7821 11.916C50.3381 11.976 49.9181 12.084 49.5221 12.24C49.1381 12.384 48.8201 12.582 48.5681 12.834C48.3281 13.086 48.2081 13.404 48.2081 13.788C48.2081 14.256 48.4061 14.64 48.8021 14.94C49.2101 15.228 49.7621 15.462 50.4581 15.642C51.1541 15.822 51.9461 15.984 52.8341 16.128C53.4581 16.224 54.1181 16.344 54.8141 16.488C55.5221 16.632 56.2121 16.824 56.8841 17.064C57.5681 17.304 58.1801 17.616 58.7201 18C59.2721 18.384 59.7101 18.864 60.0341 19.44C60.3701 20.004 60.5381 20.682 60.5381 21.474C60.5381 22.302 60.3821 23.04 60.0701 23.688C59.7581 24.324 59.3261 24.876 58.7741 25.344C58.2341 25.812 57.6041 26.196 56.8841 26.496C56.1641 26.796 55.3961 27.018 54.5801 27.162C53.7641 27.318 52.9361 27.396 52.0961 27.396ZM76.4641 27.396C75.6001 27.396 74.7301 27.282 73.8541 27.054C72.9901 26.826 72.1681 26.478 71.3881 26.01C70.6081 25.53 69.9121 24.918 69.3001 24.174C68.7001 23.43 68.2261 22.548 67.8781 21.528C67.5301 20.496 67.3561 19.308 67.3561 17.964C67.3561 16.608 67.5301 15.414 67.8781 14.382C68.2261 13.35 68.7001 12.468 69.3001 11.736C69.9121 10.992 70.6081 10.392 71.3881 9.936C72.1681 9.468 72.9901 9.126 73.8541 8.91C74.7301 8.682 75.6001 8.568 76.4641 8.568C77.4481 8.568 78.3541 8.688 79.1821 8.928C80.0221 9.156 80.7781 9.48 81.4501 9.9C82.1341 10.308 82.7161 10.794 83.1961 11.358C83.6761 11.91 84.0481 12.51 84.3121 13.158L80.4781 14.94C80.3461 14.472 80.1181 13.998 79.7941 13.518C79.4701 13.038 79.0441 12.636 78.5161 12.312C77.9881 11.988 77.3401 11.826 76.5721 11.826C76.0081 11.826 75.4501 11.94 74.8981 12.168C74.3461 12.396 73.8421 12.756 73.3861 13.248C72.9301 13.728 72.5641 14.358 72.2881 15.138C72.0121 15.918 71.8741 16.86 71.8741 17.964C71.8741 19.056 72.0121 19.992 72.2881 20.772C72.5641 21.54 72.9301 22.176 73.3861 22.68C73.8421 23.172 74.3461 23.538 74.8981 23.778C75.4501 24.018 76.0081 24.138 76.5721 24.138C77.3401 24.138 77.9881 23.988 78.5161 23.688C79.0561 23.376 79.4821 22.992 79.7941 22.536C80.1181 22.08 80.3401 21.63 80.4601 21.186L84.2941 22.986C84.0301 23.574 83.6581 24.138 83.1781 24.678C82.7101 25.206 82.1401 25.674 81.4681 26.082C80.7961 26.49 80.0401 26.808 79.2001 27.036C78.3721 27.276 77.4601 27.396 76.4641 27.396ZM111.988 27V23.724H117.316V3.276H112.924V-2.14577e-06H121.69V23.724H127.126V27H111.988Z" fill="white"/>
<path d="M96.8902 27.396C95.8822 27.396 94.9522 27.264 94.1002 27C93.2482 26.748 92.5042 26.37 91.8682 25.866C91.2442 25.362 90.7582 24.744 90.4102 24.012C90.0622 23.268 89.8882 22.416 89.8882 21.456C89.8882 20.652 90.0322 19.938 90.3202 19.314C90.6202 18.69 91.0222 18.156 91.5262 17.712C92.0302 17.256 92.6002 16.884 93.2362 16.596C93.8842 16.308 94.5622 16.098 95.2702 15.966C95.9902 15.834 96.7042 15.768 97.4122 15.768C98.2402 15.768 98.9902 15.852 99.6622 16.02C100.346 16.176 100.922 16.38 101.39 16.632C101.87 16.872 102.212 17.106 102.416 17.334V15.138C102.416 14.562 102.296 14.076 102.056 13.68C101.828 13.272 101.51 12.942 101.102 12.69C100.706 12.438 100.244 12.258 99.7162 12.15C99.2002 12.03 98.6602 11.97 98.0962 11.97C97.4962 11.97 96.9142 12.024 96.3502 12.132C95.7982 12.24 95.2822 12.378 94.8022 12.546C94.3222 12.714 93.8842 12.894 93.4882 13.086C93.1042 13.278 92.7862 13.47 92.5342 13.662L90.6442 10.44C91.0762 10.14 91.6822 9.852 92.4622 9.576C93.2542 9.288 94.1542 9.048 95.1622 8.856C96.1702 8.664 97.2322 8.568 98.3482 8.568C99.1282 8.568 99.9142 8.628 100.706 8.748C101.498 8.868 102.254 9.066 102.974 9.342C103.694 9.618 104.336 9.99 104.9 10.458C105.476 10.914 105.926 11.484 106.25 12.168C106.586 12.84 106.754 13.65 106.754 14.598V23.724H109.292V27H103.298L102.83 24.732C102.626 25.116 102.266 25.518 101.75 25.938C101.234 26.346 100.568 26.694 99.7522 26.982C98.9482 27.258 97.9942 27.396 96.8902 27.396ZM98.0782 24.138C98.8582 24.138 99.5422 24.024 100.13 23.796C100.718 23.556 101.204 23.268 101.588 22.932C101.972 22.596 102.248 22.29 102.416 22.014V20.178C102.236 19.902 101.924 19.638 101.48 19.386C101.036 19.122 100.526 18.906 99.9502 18.738C99.3862 18.558 98.8042 18.468 98.2042 18.468C97.5442 18.468 96.9022 18.558 96.2782 18.738C95.6542 18.918 95.1442 19.212 94.7482 19.62C94.3522 20.028 94.1542 20.574 94.1542 21.258C94.1542 21.942 94.3162 22.494 94.6402 22.914C94.9762 23.334 95.4382 23.646 96.0262 23.85C96.6262 24.042 97.3102 24.138 98.0782 24.138Z" fill="#83DAFF"/>
</svg>
