<svg width="427" height="378" viewBox="0 0 427 378" fill="none" xmlns="http://www.w3.org/2000/svg">
<path fill-rule="evenodd" clip-rule="evenodd" d="M142.5 0H272V66.5H300.5L302 64.5L339 73V104H343V115H339V124.5L329.5 136V151H343.5V146H414V150H419.5V198H423.5V237.5L426.5 247V269.5H387V296.5H357V305H320.5L318.5 303V295.5H316.5V306.5L321.5 311H339V334H273V318.5H244.5V359H157.5V318.5H142.5V359H110.5V348H107V359H89.5V378H40.5V369L27 363.5V317H42.5V303H17.5V305.5H28.5V315H0V238.5H7V225H0V175.5H35V187.5H55V163H64L68 166.5L68.5 165.5L63 160H39.5V169.5H28.5V170.5H5.5V169.5H0V127H43.5V95.5H34.5V71H49.5V62H116.5V74H142.5V0ZM174.5 46.5V103.5L118.5 104V100L100.5 93.5H97.5V132H84V136.5H121.5V189.5H115.5V191.5H124.5V178.5H126.5V169H124.5V131H187.5V132H233.5V37H182.5L174.5 46.5ZM161.5 178H151.5V169H161.5V178ZM291.5 93V158H288V151H263V179H241.5V176H254.5V151H263V93H291.5ZM223.5 174.5V165.5H187.5V192H198.5L205.5 198V207L198.5 213H187.5V222H191.5L197 216.5H216.5V262.5H225V216.5H275V215.5H358V182H349.5V186H291.5V169H288.5L288 202.5H223.5V179H229V174.5H223.5ZM128.5 286V293.5L183.5 294V323H207V294H296L298.5 304.5L300.5 303.5L298.5 292L291.5 286H275.5V242.5H250.5V286H191.5V244H190.5V239L194 233L192.5 231.5L188 238V245H182.5L177 252L178.5 253.5L183.5 247H188V286H128.5ZM35 276V210.5H39.5V215H93V161.5H77L71 155.5L72 154.5L76.5 159H96V223H119.5V206H126V244.5H159.5L167 236.5L168.5 238L161.5 246V250H156V263H147.5V249H65.5V272H70.5V276H35ZM113.5 272H94.5V276H107V333H110.5V326H120.5V321.5H110.5V276H113.5V272Z" fill="#363636"/>
<path d="M64 288.5V333.5H92V288.5H64Z" fill="#A00000" fill-opacity="0.5"/>
<path d="M314 242V279.5H351V242H314Z" fill="#A00000" fill-opacity="0.5"/>
<path d="M64 288.5V333.5H92V288.5H64Z" stroke="#780000"/>
<path d="M314 242V279.5H351V242H314Z" stroke="#780000"/>
<path d="M52.5 95H44.5V100H52.5V95Z" fill="#2B2B2B"/>
<path d="M62 87V92H81V87H62Z" fill="#2B2B2B"/>
<path d="M16.5 144H14.5V156.5H26.5V144H24.5V138H16.5V144Z" fill="#2B2B2B"/>
<path d="M55.5 182.5V187.5H61V182.5H55.5Z" fill="#2B2B2B"/>
<path d="M81.5 208H65.5V214H81.5V208Z" fill="#2B2B2B"/>
<path d="M26.5 247V276H33.5V247H26.5Z" fill="#2B2B2B"/>
<path d="M27.5 307.5V310H25.5V307.5H27.5Z" fill="#2B2B2B"/>
<path d="M27.5 314V312H26V314H27.5Z" fill="#2B2B2B"/>
<path d="M46.5 324L43.5 318L40.5 319.5L43.5 325.5L46.5 324Z" fill="#2B2B2B"/>
<path d="M55.5 359V362.5H76V359H55.5Z" fill="#2B2B2B"/>
<path d="M76 271.5H71.5V276.5H76V271.5Z" fill="#2B2B2B"/>
<path d="M88.5 271.5V276.5H93.5V271.5H88.5Z" fill="#2B2B2B"/>
<path d="M97.5 289H105V308H100.5V303H97.5V289Z" fill="#2B2B2B"/>
<path d="M119 321H111.5V294.5H119V321Z" fill="#2B2B2B"/>
<path d="M141 220H135V233.5H141V220Z" fill="#2B2B2B"/>
<path d="M110.5 183.5V188.5H120.5V183.5H110.5Z" fill="#2B2B2B"/>
<path d="M149 155.5V167.5H162V160H166V155.5H149Z" fill="#2B2B2B"/>
<path d="M180.5 214V220H186.5V214H180.5Z" fill="#2B2B2B"/>
<path d="M186.5 160V164H196V160H186.5Z" fill="#2B2B2B"/>
<path d="M263.5 180H250.5V183.5H263.5V180Z" fill="#2B2B2B"/>
<path d="M306 180H300.5V185H306V180Z" fill="#2B2B2B"/>
<path d="M239.5 79.5V67H234V79.5H239.5Z" fill="#2B2B2B"/>
<path d="M256.5 12V39.5H271.5V12H256.5Z" fill="#2B2B2B"/>
<path d="M261.5 90V92H277.5V90H261.5Z" fill="#2B2B2B"/>
<path d="M280.5 90V92H293V96H296V92H299.5V90H280.5Z" fill="#2B2B2B"/>
<path d="M301 69H274V67H301V69Z" fill="#2B2B2B"/>
<path d="M353.5 176.5V181H358.5V176.5H353.5Z" fill="#2B2B2B"/>
<path d="M367 216H358.5V195H367V216Z" fill="#2B2B2B"/>
<path d="M374.5 284H386V270.5H368V247.5H358V278.5H374.5V284Z" fill="#2B2B2B"/>
<path d="M388 177.5V250H398V247.5H402V242.5H398V216H403.5V204.5H398V177.5H395.5V174.5H379.5V177.5H388Z" fill="#2B2B2B"/>
<path d="M309.5 247H302.5V217H309.5V247Z" fill="#2B2B2B"/>
<path d="M283.5 272H276.5V254H283.5V272Z" fill="#2B2B2B"/>
<path d="M276.5 282.5V285H284.5V282.5H276.5Z" fill="#2B2B2B"/>
<path d="M298 288V290H300.5V288H298Z" fill="#2B2B2B"/>
<path d="M324.5 262L321 259L327.5 249L331 252L324.5 262Z" fill="#2B2B2B"/>
<path d="M331.5 272.5L322 266L325 262.5L334.5 268.5L331.5 272.5Z" fill="#2B2B2B"/>
<path d="M69.5 329.5L65.5 325.5L77.5 310L73 306L76 302L84 310L69.5 329.5Z" fill="#2B2B2B"/>
<path d="M349.51 259H347.03L346.23 255.64H341.81L341.01 259H338.53L342.06 245H345.98L349.51 259ZM343.89 246.82L342.18 253.82H345.86L344.15 246.82H343.89Z" fill="#FFFF46"/>
<path d="M81.52 304V290H86.3C86.6333 290 86.9933 290.023 87.38 290.07C87.7733 290.117 88.16 290.207 88.54 290.34C88.9267 290.473 89.2733 290.667 89.58 290.92C89.8933 291.173 90.1433 291.503 90.33 291.91C90.5167 292.317 90.61 292.82 90.61 293.42C90.61 294.1 90.4867 294.673 90.24 295.14C89.9933 295.6 89.6967 295.957 89.35 296.21C89.01 296.457 88.6967 296.603 88.41 296.65C88.67 296.677 88.96 296.76 89.28 296.9C89.6067 297.04 89.9133 297.243 90.2 297.51C90.4933 297.777 90.7333 298.12 90.92 298.54C91.1133 298.953 91.21 299.453 91.21 300.04C91.21 300.9 91.0433 301.623 90.71 302.21C90.3767 302.797 89.91 303.243 89.31 303.55C88.7167 303.85 88.0233 304 87.23 304H81.52ZM83.94 302.18H86.39C86.85 302.18 87.26 302.103 87.62 301.95C87.98 301.797 88.26 301.553 88.46 301.22C88.6667 300.88 88.77 300.433 88.77 299.88C88.77 299.3 88.65 298.85 88.41 298.53C88.17 298.21 87.8667 297.99 87.5 297.87C87.1333 297.743 86.76 297.68 86.38 297.68H83.94V302.18ZM83.94 295.88H86.04C86.44 295.88 86.8067 295.803 87.14 295.65C87.4733 295.497 87.74 295.263 87.94 294.95C88.14 294.637 88.24 294.24 88.24 293.76C88.24 293.373 88.1867 293.057 88.08 292.81C87.9733 292.557 87.82 292.357 87.62 292.21C87.42 292.063 87.18 291.963 86.9 291.91C86.6267 291.85 86.3167 291.82 85.97 291.82H83.94V295.88Z" fill="#FFFF46"/>
</svg>
