<svg width="212" height="188" viewBox="0 0 212 188" fill="none" xmlns="http://www.w3.org/2000/svg">
<path fill-rule="evenodd" clip-rule="evenodd" d="M70.8324 0H135.203V33.0741H149.369L150.115 32.0794L168.506 36.3069V51.7249H170.495V57.1958H168.506V61.9206L163.784 67.6402V75.1005H170.743V72.6138H205.787V74.6032H208.521V98.4762H210.509V118.122L212 122.847V134.037H192.366V147.466H177.454V151.693H159.311L158.317 150.698V146.968H157.322V152.439L159.808 154.677H168.506V166.116H135.7V158.407H121.533V178.55H78.2884V158.407H70.8324V178.55H54.9261V173.079H53.1864V178.55H44.4877V188H20.1313V183.524L13.4209 180.788V157.661H21.1254V150.698H8.69871V151.942H14.1665V156.667H0V118.619H3.47948V111.905H0V87.2857H17.3974V93.254H27.3388V81.0688H31.8124L33.8007 82.8095L34.0492 82.3122L31.3154 79.5767H19.6342V84.3016H14.1665V84.7989H2.73388V84.3016H0V63.164H21.6225V47.4974H17.1489V35.3122H24.6049V30.836H57.9086V36.8042H70.8324V0ZM86.7386 23.127V51.4762L58.9027 51.7249V49.7355L49.9555 46.5026H48.4642V65.6508H41.7538V67.8889H60.3939V94.2487H57.4115V95.2434H61.8851V88.7778H62.8792V84.0529H61.8851V65.1534H93.2005V65.6508H116.066V18.4021H90.7151L86.7386 23.127ZM80.2767 88.5291H75.306V84.0529H80.2767V88.5291ZM144.896 46.254V78.582H143.156V75.1005H130.729V89.0265H120.042V87.5344H126.504V75.1005H130.729V46.254H144.896ZM111.095 86.7884V82.3122H93.2005V95.4921H98.6682L102.148 98.4762V102.952L98.6682 105.937H93.2005V110.413H95.1888L97.9226 107.677H107.615V130.556H111.841V107.677H136.694V107.18H177.951V90.5185H173.726V92.5079H144.896V84.0529H143.404L143.156 100.714H111.095V89.0265H113.829V86.7884H111.095ZM63.8734 142.243V145.974L91.2122 146.222V160.646H102.893V146.222H147.132L148.375 151.444L149.369 150.947L148.375 145.228L144.896 142.243H136.943V120.608H124.516V142.243H95.1888V121.354H94.6917V118.868L96.4314 115.884L95.6858 115.138L93.449 118.37V121.852H90.7151L87.9812 125.333L88.7269 126.079L91.2122 122.847H93.449V142.243H63.8734ZM17.3974 137.27V104.693H19.6342V106.931H46.2274V80.3228H38.2743L35.2919 77.3386L35.789 76.8413L38.0258 79.0794H47.7186V110.91H59.3998V102.455H62.6307V121.603H79.2825L83.0106 117.624L83.7562 118.37L80.2767 122.349V124.339H77.5428V130.804H73.3177V123.841H32.558V135.28H35.0434V137.27H17.3974ZM56.4174 135.28H46.973V137.27H53.1864V165.619H54.9261V162.138H59.8968V159.899H54.9261V137.27H56.4174V135.28Z" fill="#363636"/>
</svg>
