<svg width="29" height="43" viewBox="0 0 29 43" fill="none" xmlns="http://www.w3.org/2000/svg">
<path d="M1 36.5L3 32.5L6 30.5L6.70968 28.5L8.66129 23L10.9677 16.5L11.5 15L10 12L11.5 8H15.5L17.5 4.5L16 2.5L17.5 1L26 5L24.5 7.5V11V16.5L21 18.5L20.2121 20.5L17.8485 26.5L15.5 32.4615L14.5 35L15 36.5L14.5 38.5L12.5 41.5L1 36.5Z" fill="white"/>
<path d="M24.5 11L27.5 15L26 20L21 32M24.5 11V16.5M24.5 11V7.5L26 5L17.5 1L16 2.5L17.5 4.5L15.5 8H11.5L10 12L11.5 15L10.9677 16.5M22 11L24.5 16.5M24.5 16.5L21 18.5L20.2121 20.5M6.70968 28.5L6 30.5L3 32.5L1 36.5L12.5 41.5L14.5 38.5L15 36.5L14.5 35L15.5 32.4615M6.70968 28.5L8.5 29.5M6.70968 28.5L8.66129 23M8.66129 23L10.5 24M8.66129 23L10.9677 16.5M10.9677 16.5L13 17.5M15.5 32.4615L13.5 31.5M15.5 32.4615L17.8485 26.5M17.8485 26.5L15.5 25.5M17.8485 26.5L20.2121 20.5M20.2121 20.5L17.8485 19.5" stroke="white"/>
</svg>
